<svg width="320" height="104" viewBox="0 0 160 52" fill="none" xmlns="http://www.w3.org/2000/svg">
  <!-- Duck body -->
  <ellipse cx="26" cy="34" rx="17" ry="12" fill="#F5C518"/>
  <ellipse cx="26" cy="34" rx="17" ry="12" fill="#E8B800" opacity="0.3"/>
  <!-- Duck head -->
  <circle cx="26" cy="20" r="10" fill="#F5C518"/>
  <!-- Beak -->
  <path d="M34 18.5 Q42 16.5 41 21 Q40 24.5 34 21.5 Z" fill="#E8860A"/>
  <!-- Eye -->
  <circle cx="30.5" cy="16.5" r="2.2" fill="#1a1208"/>
  <circle cx="31.3" cy="15.7" r="0.75" fill="white"/>
  <!-- "quack" in paths (approximated letterforms) -->
  <g fill="#C4A020">
    <!-- q -->
    <path d="M56 24.5q0-3.5 2.2-5.5 2.2-2 5.3-2 3.1 0 5.2 2 2.2 2 2.2 5.5v0.5q0 3.5-2.2 5.5-2.1 2-5.2 2-3.1 0-5.3-2-2.2-2-2.2-5.5v-0.5zm3.2 0.3q0 2.3 1.3 3.7 1.3 1.3 3 1.3 1.8 0 3-1.3 1.3-1.4 1.3-3.7v-0.3q0-2.3-1.3-3.6-1.2-1.4-3-1.4-1.7 0-3 1.4-1.3 1.3-1.3 3.6v0.3zm7.3 5.7v4.5h-3v-4.5h3z"/>
    <!-- u -->
    <path d="M74 17.5h3v9q0 2.3 1 3.3 1 1 2.8 1 1.8 0 2.8-1 1-1 1-3.3v-9h3v9q0 3.7-2 5.7-2 1.8-4.8 1.8-2.8 0-4.8-1.8-2-2-2-5.7v-9z"/>
    <!-- a -->
    <path d="M92 27q0-2.8 1.8-4.5 1.8-1.8 4.5-1.8 2 0 3.3 0.8v-0.5h3v11q0 3.5-2 5.3-2 1.8-5 1.8-1.5 0-3-0.5-1.5-0.5-2.3-1.5l1.5-2q1.5 1.5 3.5 1.5 1.8 0 2.8-1 1-1 1-2.8v-0.8q-1.3 1-3.3 1-2.7 0-4.5-1.8-1.8-1.8-1.8-4.5v-0.2zm3 0.2q0 1.7 1 2.8 1.1 1 2.7 1 1.5 0 2.8-1v-5.5q-1.3-1-2.8-1-1.6 0-2.7 1.1-1 1-1 2.7v-0.1z"/>
    <!-- c -->
    <path d="M108 24.5q0-3.5 2-5.5 2-2 5-2 2 0 3.5 0.8 1.5 0.7 2.2 2l-2.2 1.7q-1-1.8-3.3-1.8-1.8 0-3 1.3-1.2 1.4-1.2 3.5v0.3q0 2.2 1.2 3.5 1.2 1.3 3 1.3 2.3 0 3.3-1.8l2.2 1.7q-0.7 1.3-2.2 2-1.5 0.8-3.5 0.8-3 0-5-2-2-2-2-5.5v-0.3z"/>
    <!-- k -->
    <path d="M124 12h3v11l5.5-5.5h3.5l-5 5 5.5 8h-3.3l-4-6-2.2 2.2v3.8h-3v-18.5z"/>
  </g>
  <!-- ".sh" in paths -->
  <g fill="#2C2418">
    <!-- . -->
    <circle cx="140.5" cy="30" r="1.5"/>
    <!-- s -->
    <path d="M144 28q0-1.5 1.2-2.5 1.2-1 3-1 1.5 0 2.7 0.7 1.2 0.7 1.6 1.8l-2 1.2q-0.5-1.3-2.2-1.3-0.8 0-1.3 0.3-0.5 0.4-0.5 0.9 0 0.5 0.5 0.8 0.5 0.3 1.8 0.6 1.5 0.3 2.3 1.2 0.8 0.8 0.8 2 0 1.6-1.2 2.6-1.2 1-3.2 1-1.5 0-2.8-0.7-1.3-0.8-1.8-2l2-1.2q0.7 1.6 2.5 1.6 0.9 0 1.4-0.4 0.5-0.4 0.5-1 0-0.5-0.5-0.8-0.4-0.3-1.7-0.6-1.5-0.4-2.4-1.2-0.8-0.8-0.8-1.9v-0.1z"/>
    <!-- h -->
    <path d="M155 12h2.8v10q1.3-1.3 3.2-1.3 1.8 0 2.8 1.2 1 1.2 1 3.3v6.3h-2.8v-6q0-1.3-0.6-2-0.6-0.7-1.7-0.7-1 0-1.9 0.8v7.9h-2.8v-19.5z"/>
  </g>
</svg>
